Patient4_TMGait_0pt7_02_right_21_EMG.mot
version=1
nRows=26
nColumns=33
inDegrees=no
endheader
time	1LAddLong	2LGlutMax	3LGlutMed	4LIliopsoas	5LSemiMemb	6LBicFemLong	7LRecFem	8LVastMed	9LVastLat	10LGasMed	11LTibAnt	12lTibPost	13LPeroneusLong	14LSol	15LExtDigLong	16LFlexDigLong	17RAddLong	18RGlutMax	19RGlutMed	20RIliopsoas	21RSemiMemb	22RBicFemLong	23RRecFem	24RVastMed	25RVastLat	26RGasMed	27RTibAnt	28RTibPost	29RPeroneusLong	30RSol	31RExtDigLong	32RFlexDigLong
24.51	0.006256	0.057068	0.022583	0.019531	0.051117	0.02533	-0.036774	0.000305	0.090332	0.026245	-0.17578	0.017395	0.039215	-0.10437	-0.019836	0.001373	0.019073	-0.090485	0.22568	0.12589	0.074921	0.023499	0.053558	-0.043945	0.001526	-0.011749	-0.037079	-0.004578	-0.1474	-0.011749	-0.00061	-0.019226
24.511	0.010986	0.063019	0.18463	0.012665	0.031281	0.006104	0.029297	-0.003052	0.040283	0.041504	-0.002594	0.006714	-0.08667	-0.012817	0.081787	-0.001984	-0.010223	-0.15457	0.30731	0.14893	-0.005951	0.075836	0.048523	-0.018921	0.014496	-0.012817	0.005035	-0.002289	-0.20615	-0.022736	0.000153	-0.027313
24.512	0.01236	0.046539	0.16556	0.002441	0.018768	0.004425	0.13504	-0.014191	0.013733	0.016937	0.23544	0.003662	-0.08667	0.024261	0.38681	-0.009003	-0.016022	-0.10132	0.3714	0.037537	-0.033417	0.11231	0.034027	-0.058441	0.005951	-0.015259	-0.023804	-0.001068	-0.26977	0.023804	-0.006409	-0.028076
24.513	0.009918	0.040283	0.00824	-0.007935	-0.006561	0.018005	0.17166	-0.010986	-0.048828	0.012512	0.26047	0.009308	-0.052795	0.000305	0.39688	-0.011292	0.007172	-0.10666	0.64392	0.006866	0.048828	0.084991	0.10315	-0.061035	-0.005798	-0.017548	-0.016785	0.001068	0.065613	-0.0383	-0.004883	-0.02121
24.514	-0.005035	0.032349	-0.13138	0.006104	-0.026855	0.035553	0.21606	0.00061	-0.054932	-0.007324	0.15076	0.005646	-0.048523	-0.021362	0.28381	0.00412	0.013123	-0.11749	0.24139	0.14755	0.022278	0.12512	0.068665	-0.059814	0.002594	-0.022125	0.049438	-0.005035	0.32013	-0.071411	-0.005035	-0.022583
24.515	0.001831	0.00412	0.038757	0.024567	-0.013428	0.013885	0.17899	0.004425	0.015411	0.003052	0.15717	0.005035	-0.088806	-0.002441	0.24292	0.006866	0.010986	-0.063171	-0.071869	0.13565	-0.00473	0.082703	0.069122	-0.026398	0.014801	-0.030823	0.052795	-0.006409	0.64758	0.015564	-0.002899	-0.019836
24.516	0.004425	-0.022736	0.079498	0.021515	0.002594	0.004425	0.12436	0.004272	0.046234	-0.014954	0.37094	0.010071	-0.090942	0.077667	0.45425	0.005341	0.001526	-0.076904	0.14816	0.069733	0.041046	0.073242	0.045776	0.007019	0.016632	-0.027466	0.054474	-0.002899	0.20767	0.039215	-0.006866	-0.023346
24.517	0.010986	-0.081329	0.02594	0.021515	0.03479	0.007629	0.007019	0.009613	-0.011139	-0.04425	0.42755	-0.000305	-0.00473	0.11627	0.37308	0.010834	-0.028076	-0.14297	0.054474	0.04715	0.02594	0.034485	0.023346	-0.056763	0.007324	-0.024109	0.043335	-0.002594	-0.33066	-0.026703	-0.002441	-0.014648
24.518	0.007782	-0.082855	-0.11551	0.03418	0.072784	0.037537	-0.020905	0.013733	-0.085907	-0.023499	0.17258	0.005341	-0.019531	0.10605	0.23544	-0.00351	-0.030823	-0.13565	-0.063171	0.026245	0.044098	0.025024	0.037842	-0.070038	0.005035	-0.022278	0.02121	-0.005951	0.037994	-0.054169	-0.003357	-0.018616
24.519	0.006104	-0.054626	-0.14145	0.0177	0.04776	0.035858	-0.041351	0.006409	-0.083618	-0.012512	-0.40436	0.014343	-0.033875	0.083618	-0.33997	-0.011902	-0.00946	-0.10193	-0.25742	0.042267	-0.040588	0.015717	0.046692	-0.084686	0.002747	-0.02182	0.015259	-0.002594	0.30731	-0.006104	-0.002136	-0.011292
24.52	0.010223	-0.005493	-0.084686	0.010071	0.006104	0.026855	-0.038147	-0.005646	-0.004883	0.018768	-0.52109	0.003662	-0.007782	-0.017548	-1.0889	-0.014496	0.026398	-0.069733	-0.5011	-0.043488	-0.10605	0.003967	-0.023346	-0.080414	-0.005188	-0.021973	0.02594	-0.003357	0.12253	0.001221	0.002136	-0.012817
24.521	0.010681	0.003052	0.009003	0.014038	-0.011292	-0.010681	0.011902	-0.009003	0.083923	0.037079	-0.35614	0.002441	-0.000305	-0.10239	-0.44113	-0.013733	0.044708	-0.046234	-0.26581	-0.14114	-0.25101	0.025177	-0.052795	-0.069427	0.010834	-0.028992	0.042725	-0.003204	-0.23804	-0.031128	0.005493	-0.016327
24.522	0.018768	0.02121	-0.066223	-0.000458	0.028229	-0.036774	0.048828	-0.007629	0.14694	0.031433	-0.31128	0.006104	-0.022888	-0.056152	0.10056	-0.004578	0.02655	-0.053864	-0.10986	-0.17563	-0.25955	0.077057	-0.042267	-0.047913	0.014801	-0.025787	0.053558	-0.005341	-0.27039	-0.034027	-0.001678	-0.007935
24.523	0.009766	-0.029755	-0.024109	-0.015106	0.043182	-0.001984	0.035095	-0.009003	0.077057	0.006714	0.096741	0.000305	-0.044098	0.032043	-0.078125	0.007935	-0.036316	-0.080872	-0.20615	-0.018921	0.25207	0.12878	-0.040741	-0.012054	0.028687	-0.028839	0.024567	-0.002441	0.18448	-0.035858	-0.007019	-0.000305
24.524	0.007477	-0.020599	-0.027924	-0.041046	0.038452	0.027313	0.10437	-0.00473	0.016327	0.011444	0.33981	0.00412	-0.056152	0.021057	-0.20081	0.00824	-0.058441	-0.16144	0.34256	0.13428	0.29755	0.081635	0.001984	0.02182	0.028992	-0.024719	0.021667	-0.005035	-0.11505	-0.017395	-0.006409	0.000153
24.525	0.011292	-0.02182	-0.018005	-0.043945	0.02594	0.010529	0.12466	-0.002136	0.001068	0.009613	0.35278	0.00412	-0.016479	-0.07309	-0.71457	0.003967	-0.031128	-0.082245	0.66528	0.21118	0.095215	0.037689	0.023956	-0.025177	0.022888	-0.018921	-0.000458	-0.002747	-0.097198	-0.040588	-0.003967	0.005188
24.526	0.01236	-0.003204	0.038452	-0.037231	0.019836	-0.011444	0.13275	0.003357	0.054626	-0.05722	0.092163	0.005798	0.12314	0.032654	-0.6807	-0.010071	-0.013733	-0.14847	0.52033	0.13657	-0.005341	0.027771	0.00824	-0.048065	0.036316	-0.027771	0.020142	-0.006561	-0.088501	-0.040894	-0.004272	0.000916
24.527	0.012512	-0.007935	0.035095	0.020752	0.013733	0.001526	0.12756	-0.001831	0.12451	-0.04364	-0.093994	0.001831	0.086212	0.029297	-0.33508	-0.027466	-0.008545	-0.20401	-0.14786	0.058136	-0.079956	0.032501	-0.006714	-0.007782	0.042725	-0.025787	0.040741	-0.007324	-0.06958	-0.025787	-0.008087	-0.003052
24.528	0.02182	-0.00351	-0.11749	0.080719	0.008545	0.029755	0.12375	-0.03479	0.19882	-0.013885	-0.36636	0.004272	0.089264	-0.038147	-0.18524	-0.029144	0.016785	-0.22583	-0.1001	0.012512	-0.11887	0.002136	0.01358	-0.037689	0.03418	-0.025024	0.05188	-0.003662	-0.038757	-0.033569	-0.000153	-0.002594
24.529	0.007477	-0.00412	-0.18127	0.041809	0.003357	0.022888	0.1294	-0.032349	0.21606	0.013428	-0.028839	0.006714	0.027161	-0.059204	0.23071	0.001068	0.052185	-0.22492	-0.027924	-0.042877	-0.12009	-0.00061	0.028381	-0.042572	0.016632	-0.027466	0.051117	-0.005341	0.069122	-0.067291	-0.006866	-0.007477
24.53	0.001373	0.020599	-0.046692	0.018158	0.021515	0.016632	0.15457	-0.018311	0.24445	0.019379	0.040741	0.011292	-0.06546	-0.013123	0.58655	0.000153	0.049896	-0.19836	-0.18509	-0.08194	-0.067444	-0.032501	0.031281	-0.069122	0.015869	-0.016785	0.061493	-0.003204	0.33157	-0.062408	-0.009766	-0.002441
24.531	-0.001526	0.019989	0.034027	0.020752	0.017548	0.046234	0.21561	0.031738	0.15839	0.022736	-0.048828	0.010071	-0.055695	-0.10681	-0.10147	0.002899	0.037384	-0.19501	-0.2803	-0.080719	0.025635	0.074158	-0.007172	0.007172	0.024414	-0.027771	0.05661	-0.003052	0.36652	-0.037079	-0.003967	-0.005341
24.532	0.007324	0.041504	-0.01358	0.041046	0.0383	-0.002899	0.15533	0.033875	-0.071411	0.031281	0.098419	0.003815	-0.13458	-0.18646	-0.16571	-0.000916	0.019073	-0.10773	-0.31662	-0.003204	0.072937	0.41184	-0.035858	0.043335	0.020599	-0.024414	0.049744	-0.002136	0.16693	-0.036469	-0.002441	-0.002136
24.533	0.005035	0.015411	-0.062103	0.049438	0.013733	0.013123	0.2005	0.011597	-0.17166	0.013275	0.083771	0.002747	-0.096893	-0.11536	0.11551	-0.000763	0.032043	-0.10666	-0.43778	0.004272	0.045471	0.39093	0.007782	0.032349	0.012817	-0.023041	0.035553	-0.00061	-0.22659	-0.044708	-0.005035	-0.00473
24.534	0.006256	0.013885	-0.062866	0.038605	0.009155	0.026093	0.13351	0.003052	-0.25192	-0.025787	-0.20538	-0.000916	0.009155	-0.001526	0.34042	0.002899	0.10178	-0.098724	-0.23529	-0.005798	0.035553	0.19898	0.015564	-0.019379	0.020599	-0.024261	0.055237	0.000153	-0.65948	-0.026093	-0.001221	-0.006714
24.535	0.005341	0.028839	-0.047607	0.019531	0.007629	0.019073	0.008392	0.008698	-0.14465	-0.021515	-0.071564	0.009766	0.03418	0.090179	0.21896	0.005646	0.12741	-0.11704	0.10101	-0.1268	-0.041046	0.040588	0.006866	-0.054321	0.008698	-0.02243	0.003662	-0.001526	-0.64667	-0.054474	-0.002747	0.000153
